<svg width="575" height="128" viewBox="0 0 575 128" fill="none" xmlns="http://www.w3.org/2000/svg">
<g id="btn">
<g id="btn_2">
<g id="btn_3" filter="url(#filter0_d)">
<rect x="6" y="2" width="562.845" height="116" rx="10" fill="white"/>
</g>
<path id="cd Projects" d="M158.647 78.1914C156.948 78.1914 155.522 77.8594 154.37 77.1953C153.237 76.5117 152.329 75.623 151.646 74.5293C150.942 73.4551 150.435 72.2441 150.122 70.8965C149.829 69.5293 149.683 68.1523 149.683 66.7656V65.5352C149.683 64.168 149.829 62.8105 150.122 61.4629C150.435 60.1152 150.942 58.8945 151.646 57.8008C152.349 56.7266 153.267 55.8574 154.399 55.1934C155.552 54.5098 156.968 54.168 158.647 54.168C159.741 54.168 160.757 54.3535 161.694 54.7246C162.651 55.0957 163.472 55.6035 164.155 56.248C164.839 56.8926 165.376 57.6445 165.767 58.5039C166.177 59.3438 166.392 60.2422 166.411 61.1992H171.538C171.538 59.5977 171.216 58.0938 170.571 56.6875C169.927 55.2812 169.038 54.0605 167.905 53.0254C166.753 52.0098 165.386 51.209 163.804 50.623C162.241 50.0176 160.522 49.7148 158.647 49.7148C156.245 49.7148 154.146 50.1445 152.349 51.0039C150.552 51.8633 149.058 53.0156 147.866 54.4609C146.655 55.9258 145.747 57.6152 145.142 59.5293C144.536 61.4434 144.233 63.4453 144.233 65.5352V66.7656C144.233 68.875 144.536 70.8867 145.142 72.8008C145.747 74.6953 146.655 76.3652 147.866 77.8105C149.058 79.2754 150.552 80.4375 152.349 81.2969C154.146 82.1562 156.245 82.5859 158.647 82.5859C160.327 82.5859 161.938 82.3027 163.481 81.7363C165.024 81.1504 166.392 80.3691 167.583 79.3926C168.774 78.4355 169.722 77.3223 170.425 76.0527C171.147 74.7637 171.519 73.416 171.538 72.0098H166.411C166.392 72.8887 166.157 73.709 165.708 74.4707C165.278 75.2129 164.702 75.8574 163.979 76.4043C163.257 76.9707 162.427 77.4102 161.489 77.7227C160.571 78.0352 159.624 78.1914 158.647 78.1914ZM180.151 65.8867V66.502C180.151 68.7676 180.454 70.8867 181.06 72.8594C181.665 74.8125 182.515 76.5117 183.608 77.957C184.702 79.4023 186.021 80.5352 187.563 81.3555C189.126 82.1758 190.864 82.5859 192.778 82.5859C194.731 82.5859 196.44 82.2539 197.905 81.5898C199.37 80.9258 200.63 79.9492 201.685 78.6602L201.919 82H206.899V37H201.479V53.4355C200.444 52.2246 199.214 51.3066 197.788 50.6816C196.382 50.0371 194.731 49.7148 192.837 49.7148C190.903 49.7148 189.155 50.1152 187.593 50.916C186.03 51.7168 184.702 52.8301 183.608 54.2559C182.495 55.6816 181.636 57.3906 181.03 59.3828C180.444 61.3555 180.151 63.5234 180.151 65.8867ZM185.571 66.502V65.8867C185.571 64.3438 185.737 62.8789 186.069 61.4922C186.401 60.0859 186.919 58.8457 187.622 57.7715C188.306 56.7168 189.185 55.877 190.259 55.252C191.353 54.627 192.661 54.3145 194.185 54.3145C195.962 54.3145 197.446 54.7344 198.638 55.5742C199.829 56.3945 200.776 57.4492 201.479 58.7383V73.4453C200.776 74.832 199.829 75.9355 198.638 76.7559C197.446 77.5762 195.942 77.9863 194.126 77.9863C192.622 77.9863 191.333 77.6836 190.259 77.0781C189.185 76.4531 188.306 75.6133 187.622 74.5586C186.919 73.5039 186.401 72.2832 186.069 70.8965C185.737 69.5098 185.571 68.0449 185.571 66.502ZM259.165 64.8906H267.573C269.487 64.8711 271.294 64.5781 272.993 64.0117C274.712 63.4453 276.216 62.625 277.505 61.5508C278.794 60.4766 279.81 59.1582 280.552 57.5957C281.313 56.0137 281.694 54.1973 281.694 52.1465C281.694 50.0957 281.313 48.2793 280.552 46.6973C279.81 45.1152 278.794 43.7871 277.505 42.7129C276.216 41.6387 274.712 40.8184 272.993 40.252C271.294 39.6855 269.487 39.3828 267.573 39.3438H253.745V82H259.165V64.8906ZM259.165 60.4375V43.7969H267.573C268.823 43.8164 269.976 44.0215 271.03 44.4121C272.104 44.8027 273.032 45.3594 273.813 46.082C274.575 46.8047 275.171 47.6836 275.601 48.7188C276.05 49.7539 276.274 50.916 276.274 52.2051C276.274 53.4941 276.05 54.6465 275.601 55.6621C275.171 56.6582 274.565 57.5078 273.784 58.2109C273.003 58.9141 272.085 59.4609 271.03 59.8516C269.976 60.2227 268.823 60.418 267.573 60.4375H259.165ZM310.054 49.7148C307.749 49.7148 305.688 50.2227 303.872 51.2383C302.075 52.2344 300.532 53.6016 299.243 55.3398L299.214 54.5488L298.979 50.3008H293.823V82H299.272V61.668C299.624 60.6914 300.063 59.8125 300.591 59.0312C301.138 58.2305 301.772 57.5566 302.495 57.0098C303.296 56.3848 304.233 55.916 305.308 55.6035C306.382 55.2715 307.583 55.1055 308.911 55.1055C309.946 55.1055 310.933 55.1641 311.87 55.2812C312.827 55.3789 313.833 55.5449 314.888 55.7793L315.62 50.4766C315.073 50.2422 314.253 50.0566 313.159 49.9199C312.085 49.7832 311.05 49.7148 310.054 49.7148ZM323.794 65.8574V66.502C323.794 68.7871 324.126 70.9062 324.79 72.8594C325.454 74.8125 326.411 76.5117 327.661 77.957C328.892 79.4023 330.396 80.5352 332.173 81.3555C333.97 82.1758 335.991 82.5859 338.237 82.5859C340.464 82.5859 342.466 82.1758 344.243 81.3555C346.021 80.5352 347.534 79.4023 348.784 77.957C350.015 76.5117 350.962 74.8125 351.626 72.8594C352.29 70.9062 352.622 68.7871 352.622 66.502V65.8574C352.622 63.5723 352.29 61.4531 351.626 59.5C350.962 57.5273 350.015 55.8184 348.784 54.373C347.534 52.9277 346.011 51.7949 344.214 50.9746C342.437 50.1348 340.425 49.7148 338.179 49.7148C335.952 49.7148 333.95 50.1348 332.173 50.9746C330.396 51.7949 328.892 52.9277 327.661 54.373C326.411 55.8184 325.454 57.5273 324.79 59.5C324.126 61.4531 323.794 63.5723 323.794 65.8574ZM329.214 66.502V65.8574C329.214 64.3145 329.399 62.8398 329.771 61.4336C330.142 60.0078 330.708 58.7578 331.47 57.6836C332.212 56.6094 333.14 55.7598 334.253 55.1348C335.366 54.4902 336.675 54.168 338.179 54.168C339.683 54.168 340.991 54.4902 342.104 55.1348C343.237 55.7598 344.185 56.6094 344.946 57.6836C345.688 58.7578 346.245 60.0078 346.616 61.4336C347.007 62.8398 347.202 64.3145 347.202 65.8574V66.502C347.202 68.0645 347.017 69.5586 346.646 70.9844C346.274 72.3906 345.718 73.6309 344.976 74.7051C344.214 75.7793 343.267 76.6289 342.134 77.2539C341.021 77.8789 339.722 78.1914 338.237 78.1914C336.733 78.1914 335.415 77.8789 334.282 77.2539C333.149 76.6289 332.212 75.7793 331.47 74.7051C330.708 73.6309 330.142 72.3906 329.771 70.9844C329.399 69.5586 329.214 68.0645 329.214 66.502ZM365.015 50.3008V55.0176H375.591V82.2051C375.591 83.709 375.396 84.9688 375.005 85.9844C374.634 87.0195 374.116 87.8496 373.452 88.4746C372.788 89.0996 372.007 89.5391 371.108 89.793C370.21 90.0664 369.253 90.2031 368.237 90.2031C367.964 90.2031 367.583 90.1934 367.095 90.1738C366.626 90.1738 366.138 90.1543 365.63 90.1152C365.103 90.0957 364.585 90.0566 364.077 89.998C363.569 89.959 363.149 89.9102 362.817 89.8516L362.437 94.3047C362.925 94.3828 363.394 94.4512 363.843 94.5098C364.292 94.5879 364.741 94.6465 365.19 94.6855C365.737 94.7246 366.294 94.7539 366.86 94.7734C367.427 94.793 368.013 94.8027 368.618 94.8027C370.571 94.8027 372.31 94.5195 373.833 93.9531C375.376 93.4062 376.685 92.5957 377.759 91.5215C378.813 90.4668 379.614 89.1582 380.161 87.5957C380.728 86.0332 381.011 84.2363 381.011 82.2051V50.3008H365.015ZM374.829 41.9512C374.829 42.8301 375.093 43.5723 375.62 44.1777C376.147 44.7637 376.958 45.0566 378.052 45.0566C379.146 45.0566 379.966 44.7637 380.513 44.1777C381.06 43.5723 381.333 42.8301 381.333 41.9512C381.333 41.0723 381.06 40.3301 380.513 39.7246C379.966 39.0996 379.146 38.7871 378.052 38.7871C376.958 38.7871 376.147 39.0996 375.62 39.7246C375.093 40.3301 374.829 41.0723 374.829 41.9512ZM411.392 82.5859C414.478 82.5859 417.065 81.9707 419.155 80.7402C421.265 79.4902 422.847 78.0645 423.901 76.4629L420.591 73.8848C419.595 75.1738 418.345 76.209 416.841 76.9902C415.337 77.7715 413.618 78.1621 411.685 78.1621C410.22 78.1621 408.882 77.8887 407.671 77.3418C406.46 76.7949 405.425 76.043 404.565 75.0859C403.726 74.1875 403.062 73.1523 402.573 71.9805C402.104 70.8086 401.802 69.4512 401.665 67.9082V67.7031H424.312V65.2715C424.312 63.0645 424.028 61.0137 423.462 59.1191C422.915 57.2246 422.075 55.5742 420.942 54.168C419.81 52.7812 418.384 51.6973 416.665 50.916C414.966 50.1152 412.974 49.7148 410.688 49.7148C408.872 49.7148 407.095 50.0859 405.356 50.8281C403.638 51.5703 402.104 52.6348 400.757 54.0215C399.39 55.4277 398.296 57.1465 397.476 59.1777C396.655 61.1895 396.245 63.4746 396.245 66.0332V67.2637C396.245 69.4707 396.616 71.5117 397.358 73.3867C398.101 75.2617 399.136 76.8828 400.464 78.25C401.792 79.6172 403.384 80.6816 405.239 81.4434C407.114 82.2051 409.165 82.5859 411.392 82.5859ZM410.688 54.168C412.075 54.168 413.267 54.4219 414.263 54.9297C415.278 55.4375 416.118 56.1016 416.782 56.9219C417.446 57.7422 417.964 58.7188 418.335 59.8516C418.706 60.9648 418.892 62.0098 418.892 62.9863V63.25H401.841C402.056 61.7852 402.427 60.4961 402.954 59.3828C403.501 58.25 404.165 57.293 404.946 56.5117C405.728 55.75 406.606 55.1738 407.583 54.7832C408.56 54.373 409.595 54.168 410.688 54.168ZM446.929 78.1914C445.229 78.1914 443.804 77.8594 442.651 77.1953C441.519 76.5117 440.61 75.623 439.927 74.5293C439.224 73.4551 438.716 72.2441 438.403 70.8965C438.11 69.5293 437.964 68.1523 437.964 66.7656V65.5352C437.964 64.168 438.11 62.8105 438.403 61.4629C438.716 60.1152 439.224 58.8945 439.927 57.8008C440.63 56.7266 441.548 55.8574 442.681 55.1934C443.833 54.5098 445.249 54.168 446.929 54.168C448.022 54.168 449.038 54.3535 449.976 54.7246C450.933 55.0957 451.753 55.6035 452.437 56.248C453.12 56.8926 453.657 57.6445 454.048 58.5039C454.458 59.3438 454.673 60.2422 454.692 61.1992H459.819C459.819 59.5977 459.497 58.0938 458.853 56.6875C458.208 55.2812 457.319 54.0605 456.187 53.0254C455.034 52.0098 453.667 51.209 452.085 50.623C450.522 50.0176 448.804 49.7148 446.929 49.7148C444.526 49.7148 442.427 50.1445 440.63 51.0039C438.833 51.8633 437.339 53.0156 436.147 54.4609C434.937 55.9258 434.028 57.6152 433.423 59.5293C432.817 61.4434 432.515 63.4453 432.515 65.5352V66.7656C432.515 68.875 432.817 70.8867 433.423 72.8008C434.028 74.6953 434.937 76.3652 436.147 77.8105C437.339 79.2754 438.833 80.4375 440.63 81.2969C442.427 82.1562 444.526 82.5859 446.929 82.5859C448.608 82.5859 450.22 82.3027 451.763 81.7363C453.306 81.1504 454.673 80.3691 455.864 79.3926C457.056 78.4355 458.003 77.3223 458.706 76.0527C459.429 74.7637 459.8 73.416 459.819 72.0098H454.692C454.673 72.8887 454.438 73.709 453.989 74.4707C453.56 75.2129 452.983 75.8574 452.261 76.4043C451.538 76.9707 450.708 77.4102 449.771 77.7227C448.853 78.0352 447.905 78.1914 446.929 78.1914ZM482.29 42.625H476.841V50.3008H468.521V54.4902H476.841V71.7168C476.841 73.6699 477.095 75.3398 477.603 76.7266C478.13 78.0938 478.843 79.207 479.741 80.0664C480.64 80.9453 481.694 81.5898 482.905 82C484.136 82.3906 485.454 82.5859 486.86 82.5859C487.7 82.5859 488.54 82.5469 489.38 82.4688C490.239 82.3906 491.05 82.2734 491.812 82.1172C492.573 81.9805 493.276 81.8145 493.921 81.6191C494.565 81.4043 495.112 81.1602 495.562 80.8867L494.8 77.0488C494.468 77.127 494.038 77.2246 493.511 77.3418C493.003 77.4395 492.456 77.5371 491.87 77.6348C491.265 77.7324 490.649 77.8203 490.024 77.8984C489.399 77.957 488.794 77.9863 488.208 77.9863C487.407 77.9863 486.646 77.8887 485.923 77.6934C485.22 77.498 484.595 77.1562 484.048 76.668C483.501 76.1992 483.071 75.5645 482.759 74.7637C482.446 73.9629 482.29 72.9473 482.29 71.7168V54.4902H494.36V50.3008H482.29V42.625ZM526.558 73.5918C526.558 74.0996 526.46 74.5781 526.265 75.0273C526.069 75.4766 525.786 75.8867 525.415 76.2578C524.81 76.8633 523.97 77.3418 522.896 77.6934C521.821 78.0254 520.562 78.1914 519.116 78.1914C518.198 78.1914 517.271 78.0938 516.333 77.8984C515.396 77.7031 514.546 77.3711 513.784 76.9023C513.003 76.4336 512.349 75.8184 511.821 75.0566C511.313 74.2949 511.021 73.3574 510.942 72.2441H505.522C505.522 73.5918 505.825 74.8906 506.431 76.1406C507.056 77.3906 507.954 78.4844 509.126 79.4219C510.278 80.3789 511.694 81.1504 513.374 81.7363C515.054 82.3027 516.968 82.5859 519.116 82.5859C520.991 82.5859 522.72 82.3613 524.302 81.9121C525.884 81.4629 527.241 80.8281 528.374 80.0078C529.507 79.1875 530.386 78.2012 531.011 77.0488C531.655 75.8965 531.978 74.6172 531.978 73.2109C531.978 71.9023 531.694 70.75 531.128 69.7539C530.581 68.7578 529.78 67.8789 528.726 67.1172C527.671 66.375 526.372 65.7402 524.829 65.2129C523.286 64.666 521.538 64.1875 519.585 63.7773C518.101 63.4844 516.87 63.1816 515.894 62.8691C514.937 62.5566 514.175 62.2051 513.608 61.8145C513.022 61.4238 512.612 60.9844 512.378 60.4961C512.144 60.0078 512.026 59.4512 512.026 58.8262C512.026 58.2207 512.173 57.6348 512.466 57.0684C512.759 56.502 513.198 56.0039 513.784 55.5742C514.351 55.1445 515.063 54.8027 515.923 54.5488C516.802 54.2949 517.817 54.168 518.97 54.168C520.083 54.168 521.079 54.3242 521.958 54.6367C522.856 54.9492 523.618 55.3594 524.243 55.8672C524.868 56.375 525.356 56.9609 525.708 57.625C526.06 58.2695 526.235 58.9336 526.235 59.6172H531.655C531.655 58.2305 531.353 56.9414 530.747 55.75C530.161 54.5391 529.321 53.4844 528.228 52.5859C527.134 51.6875 525.806 50.9844 524.243 50.4766C522.681 49.9688 520.923 49.7148 518.97 49.7148C517.153 49.7148 515.483 49.959 513.96 50.4473C512.456 50.9355 511.157 51.5996 510.063 52.4395C508.97 53.2793 508.12 54.2656 507.515 55.3984C506.909 56.5117 506.606 57.7129 506.606 59.002C506.606 60.3105 506.899 61.4629 507.485 62.459C508.071 63.4355 508.901 64.2852 509.976 65.0078C511.03 65.75 512.3 66.3848 513.784 66.9121C515.288 67.4395 516.948 67.8887 518.765 68.2598C520.249 68.5527 521.489 68.8848 522.485 69.2559C523.481 69.6074 524.282 69.998 524.888 70.4277C525.493 70.8574 525.923 71.3359 526.177 71.8633C526.431 72.3711 526.558 72.9473 526.558 73.5918Z" fill="#3F3D56"/>
<g id="arrow">
<line id="Line 1" y1="-5" x2="41.4086" y2="-5" transform="matrix(0.692618 0.7217 -0.732144 0.680732 39.0703 37.5159)" stroke="#3F3D56" stroke-width="10"/>
<line id="Line 2" y1="-5" x2="41.4628" y2="-5" transform="matrix(0.725067 -0.688264 -0.700054 -0.71449 38.3115 82.0356)" stroke="#3F3D56" stroke-width="10"/>
</g>
<rect id="blink" x="83.2129" y="74" width="42.6705" height="16" fill="#FDD835"/>
</g>
</g>
<defs>
<filter id="filter0_d" x="0" y="0" width="574.845" height="128" filterUnits="userSpaceOnUse" color-interpolation-filters="sRGB">
<feFlood flood-opacity="0" result="BackgroundImageFix"/>
<feColorMatrix in="SourceAlpha" type="matrix" values="0 0 0 0 0 0 0 0 0 0 0 0 0 0 0 0 0 0 127 0"/>
<feOffset dy="4"/>
<feGaussianBlur stdDeviation="3"/>
<feColorMatrix type="matrix" values="0 0 0 0 0.477805 0 0 0 0 0.445833 0 0 0 0 1 0 0 0 0.49 0"/>
<feBlend mode="normal" in2="BackgroundImageFix" result="effect1_dropShadow"/>
<feBlend mode="normal" in="SourceGraphic" in2="effect1_dropShadow" result="shape"/>
</filter>
</defs>
</svg>
