<svg width="705" height="128" viewBox="0 0 705 128" fill="none" xmlns="http://www.w3.org/2000/svg">
<g id="cd">
<g id="btn">
<g id="btn_2">
<g id="btn_3" filter="url(#filter0_d)">
<rect x="6" y="2" width="554" height="116" rx="10" fill="white"/>
</g>
<path id="cd Projects" d="M157.674 78.1914C155.975 78.1914 154.549 77.8594 153.396 77.1953C152.264 76.5117 151.355 75.623 150.672 74.5293C149.969 73.4551 149.461 72.2441 149.148 70.8965C148.855 69.5293 148.709 68.1523 148.709 66.7656V65.5352C148.709 64.168 148.855 62.8105 149.148 61.4629C149.461 60.1152 149.969 58.8945 150.672 57.8008C151.375 56.7266 152.293 55.8574 153.426 55.1934C154.578 54.5098 155.994 54.168 157.674 54.168C158.768 54.168 159.783 54.3535 160.721 54.7246C161.678 55.0957 162.498 55.6035 163.182 56.248C163.865 56.8926 164.402 57.6445 164.793 58.5039C165.203 59.3438 165.418 60.2422 165.438 61.1992H170.564C170.564 59.5977 170.242 58.0938 169.598 56.6875C168.953 55.2812 168.064 54.0605 166.932 53.0254C165.779 52.0098 164.412 51.209 162.83 50.623C161.268 50.0176 159.549 49.7148 157.674 49.7148C155.271 49.7148 153.172 50.1445 151.375 51.0039C149.578 51.8633 148.084 53.0156 146.893 54.4609C145.682 55.9258 144.773 57.6152 144.168 59.5293C143.562 61.4434 143.26 63.4453 143.26 65.5352V66.7656C143.26 68.875 143.562 70.8867 144.168 72.8008C144.773 74.6953 145.682 76.3652 146.893 77.8105C148.084 79.2754 149.578 80.4375 151.375 81.2969C153.172 82.1562 155.271 82.5859 157.674 82.5859C159.354 82.5859 160.965 82.3027 162.508 81.7363C164.051 81.1504 165.418 80.3691 166.609 79.3926C167.801 78.4355 168.748 77.3223 169.451 76.0527C170.174 74.7637 170.545 73.416 170.564 72.0098H165.438C165.418 72.8887 165.184 73.709 164.734 74.4707C164.305 75.2129 163.729 75.8574 163.006 76.4043C162.283 76.9707 161.453 77.4102 160.516 77.7227C159.598 78.0352 158.65 78.1914 157.674 78.1914ZM179.178 65.8867V66.502C179.178 68.7676 179.48 70.8867 180.086 72.8594C180.691 74.8125 181.541 76.5117 182.635 77.957C183.729 79.4023 185.047 80.5352 186.59 81.3555C188.152 82.1758 189.891 82.5859 191.805 82.5859C193.758 82.5859 195.467 82.2539 196.932 81.5898C198.396 80.9258 199.656 79.9492 200.711 78.6602L200.945 82H205.926V37H200.506V53.4355C199.471 52.2246 198.24 51.3066 196.814 50.6816C195.408 50.0371 193.758 49.7148 191.863 49.7148C189.93 49.7148 188.182 50.1152 186.619 50.916C185.057 51.7168 183.729 52.8301 182.635 54.2559C181.521 55.6816 180.662 57.3906 180.057 59.3828C179.471 61.3555 179.178 63.5234 179.178 65.8867ZM184.598 66.502V65.8867C184.598 64.3438 184.764 62.8789 185.096 61.4922C185.428 60.0859 185.945 58.8457 186.648 57.7715C187.332 56.7168 188.211 55.877 189.285 55.252C190.379 54.627 191.688 54.3145 193.211 54.3145C194.988 54.3145 196.473 54.7344 197.664 55.5742C198.855 56.3945 199.803 57.4492 200.506 58.7383V73.4453C199.803 74.832 198.855 75.9355 197.664 76.7559C196.473 77.5762 194.969 77.9863 193.152 77.9863C191.648 77.9863 190.359 77.6836 189.285 77.0781C188.211 76.4531 187.332 75.6133 186.648 74.5586C185.945 73.5039 185.428 72.2832 185.096 70.8965C184.764 69.5098 184.598 68.0449 184.598 66.502ZM258.191 64.8906H266.6C268.514 64.8711 270.32 64.5781 272.02 64.0117C273.738 63.4453 275.242 62.625 276.531 61.5508C277.82 60.4766 278.836 59.1582 279.578 57.5957C280.34 56.0137 280.721 54.1973 280.721 52.1465C280.721 50.0957 280.34 48.2793 279.578 46.6973C278.836 45.1152 277.82 43.7871 276.531 42.7129C275.242 41.6387 273.738 40.8184 272.02 40.252C270.32 39.6855 268.514 39.3828 266.6 39.3438H252.771V82H258.191V64.8906ZM258.191 60.4375V43.7969H266.6C267.85 43.8164 269.002 44.0215 270.057 44.4121C271.131 44.8027 272.059 45.3594 272.84 46.082C273.602 46.8047 274.197 47.6836 274.627 48.7188C275.076 49.7539 275.301 50.916 275.301 52.2051C275.301 53.4941 275.076 54.6465 274.627 55.6621C274.197 56.6582 273.592 57.5078 272.811 58.2109C272.029 58.9141 271.111 59.4609 270.057 59.8516C269.002 60.2227 267.85 60.418 266.6 60.4375H258.191ZM309.08 49.7148C306.775 49.7148 304.715 50.2227 302.898 51.2383C301.102 52.2344 299.559 53.6016 298.27 55.3398L298.24 54.5488L298.006 50.3008H292.85V82H298.299V61.668C298.65 60.6914 299.09 59.8125 299.617 59.0312C300.164 58.2305 300.799 57.5566 301.521 57.0098C302.322 56.3848 303.26 55.916 304.334 55.6035C305.408 55.2715 306.609 55.1055 307.938 55.1055C308.973 55.1055 309.959 55.1641 310.896 55.2812C311.854 55.3789 312.859 55.5449 313.914 55.7793L314.646 50.4766C314.1 50.2422 313.279 50.0566 312.186 49.9199C311.111 49.7832 310.076 49.7148 309.08 49.7148ZM322.82 65.8574V66.502C322.82 68.7871 323.152 70.9062 323.816 72.8594C324.48 74.8125 325.438 76.5117 326.688 77.957C327.918 79.4023 329.422 80.5352 331.199 81.3555C332.996 82.1758 335.018 82.5859 337.264 82.5859C339.49 82.5859 341.492 82.1758 343.27 81.3555C345.047 80.5352 346.561 79.4023 347.811 77.957C349.041 76.5117 349.988 74.8125 350.652 72.8594C351.316 70.9062 351.648 68.7871 351.648 66.502V65.8574C351.648 63.5723 351.316 61.4531 350.652 59.5C349.988 57.5273 349.041 55.8184 347.811 54.373C346.561 52.9277 345.037 51.7949 343.24 50.9746C341.463 50.1348 339.451 49.7148 337.205 49.7148C334.979 49.7148 332.977 50.1348 331.199 50.9746C329.422 51.7949 327.918 52.9277 326.688 54.373C325.438 55.8184 324.48 57.5273 323.816 59.5C323.152 61.4531 322.82 63.5723 322.82 65.8574ZM328.24 66.502V65.8574C328.24 64.3145 328.426 62.8398 328.797 61.4336C329.168 60.0078 329.734 58.7578 330.496 57.6836C331.238 56.6094 332.166 55.7598 333.279 55.1348C334.393 54.4902 335.701 54.168 337.205 54.168C338.709 54.168 340.018 54.4902 341.131 55.1348C342.264 55.7598 343.211 56.6094 343.973 57.6836C344.715 58.7578 345.271 60.0078 345.643 61.4336C346.033 62.8398 346.229 64.3145 346.229 65.8574V66.502C346.229 68.0645 346.043 69.5586 345.672 70.9844C345.301 72.3906 344.744 73.6309 344.002 74.7051C343.24 75.7793 342.293 76.6289 341.16 77.2539C340.047 77.8789 338.748 78.1914 337.264 78.1914C335.76 78.1914 334.441 77.8789 333.309 77.2539C332.176 76.6289 331.238 75.7793 330.496 74.7051C329.734 73.6309 329.168 72.3906 328.797 70.9844C328.426 69.5586 328.24 68.0645 328.24 66.502ZM364.041 50.3008V55.0176H374.617V82.2051C374.617 83.709 374.422 84.9688 374.031 85.9844C373.66 87.0195 373.143 87.8496 372.479 88.4746C371.814 89.0996 371.033 89.5391 370.135 89.793C369.236 90.0664 368.279 90.2031 367.264 90.2031C366.99 90.2031 366.609 90.1934 366.121 90.1738C365.652 90.1738 365.164 90.1543 364.656 90.1152C364.129 90.0957 363.611 90.0566 363.104 89.998C362.596 89.959 362.176 89.9102 361.844 89.8516L361.463 94.3047C361.951 94.3828 362.42 94.4512 362.869 94.5098C363.318 94.5879 363.768 94.6465 364.217 94.6855C364.764 94.7246 365.32 94.7539 365.887 94.7734C366.453 94.793 367.039 94.8027 367.645 94.8027C369.598 94.8027 371.336 94.5195 372.859 93.9531C374.402 93.4062 375.711 92.5957 376.785 91.5215C377.84 90.4668 378.641 89.1582 379.188 87.5957C379.754 86.0332 380.037 84.2363 380.037 82.2051V50.3008H364.041ZM373.855 41.9512C373.855 42.8301 374.119 43.5723 374.646 44.1777C375.174 44.7637 375.984 45.0566 377.078 45.0566C378.172 45.0566 378.992 44.7637 379.539 44.1777C380.086 43.5723 380.359 42.8301 380.359 41.9512C380.359 41.0723 380.086 40.3301 379.539 39.7246C378.992 39.0996 378.172 38.7871 377.078 38.7871C375.984 38.7871 375.174 39.0996 374.646 39.7246C374.119 40.3301 373.855 41.0723 373.855 41.9512ZM410.418 82.5859C413.504 82.5859 416.092 81.9707 418.182 80.7402C420.291 79.4902 421.873 78.0645 422.928 76.4629L419.617 73.8848C418.621 75.1738 417.371 76.209 415.867 76.9902C414.363 77.7715 412.645 78.1621 410.711 78.1621C409.246 78.1621 407.908 77.8887 406.697 77.3418C405.486 76.7949 404.451 76.043 403.592 75.0859C402.752 74.1875 402.088 73.1523 401.6 71.9805C401.131 70.8086 400.828 69.4512 400.691 67.9082V67.7031H423.338V65.2715C423.338 63.0645 423.055 61.0137 422.488 59.1191C421.941 57.2246 421.102 55.5742 419.969 54.168C418.836 52.7812 417.41 51.6973 415.691 50.916C413.992 50.1152 412 49.7148 409.715 49.7148C407.898 49.7148 406.121 50.0859 404.383 50.8281C402.664 51.5703 401.131 52.6348 399.783 54.0215C398.416 55.4277 397.322 57.1465 396.502 59.1777C395.682 61.1895 395.271 63.4746 395.271 66.0332V67.2637C395.271 69.4707 395.643 71.5117 396.385 73.3867C397.127 75.2617 398.162 76.8828 399.49 78.25C400.818 79.6172 402.41 80.6816 404.266 81.4434C406.141 82.2051 408.191 82.5859 410.418 82.5859ZM409.715 54.168C411.102 54.168 412.293 54.4219 413.289 54.9297C414.305 55.4375 415.145 56.1016 415.809 56.9219C416.473 57.7422 416.99 58.7188 417.361 59.8516C417.732 60.9648 417.918 62.0098 417.918 62.9863V63.25H400.867C401.082 61.7852 401.453 60.4961 401.98 59.3828C402.527 58.25 403.191 57.293 403.973 56.5117C404.754 55.75 405.633 55.1738 406.609 54.7832C407.586 54.373 408.621 54.168 409.715 54.168ZM445.955 78.1914C444.256 78.1914 442.83 77.8594 441.678 77.1953C440.545 76.5117 439.637 75.623 438.953 74.5293C438.25 73.4551 437.742 72.2441 437.43 70.8965C437.137 69.5293 436.99 68.1523 436.99 66.7656V65.5352C436.99 64.168 437.137 62.8105 437.43 61.4629C437.742 60.1152 438.25 58.8945 438.953 57.8008C439.656 56.7266 440.574 55.8574 441.707 55.1934C442.859 54.5098 444.275 54.168 445.955 54.168C447.049 54.168 448.064 54.3535 449.002 54.7246C449.959 55.0957 450.779 55.6035 451.463 56.248C452.146 56.8926 452.684 57.6445 453.074 58.5039C453.484 59.3438 453.699 60.2422 453.719 61.1992H458.846C458.846 59.5977 458.523 58.0938 457.879 56.6875C457.234 55.2812 456.346 54.0605 455.213 53.0254C454.061 52.0098 452.693 51.209 451.111 50.623C449.549 50.0176 447.83 49.7148 445.955 49.7148C443.553 49.7148 441.453 50.1445 439.656 51.0039C437.859 51.8633 436.365 53.0156 435.174 54.4609C433.963 55.9258 433.055 57.6152 432.449 59.5293C431.844 61.4434 431.541 63.4453 431.541 65.5352V66.7656C431.541 68.875 431.844 70.8867 432.449 72.8008C433.055 74.6953 433.963 76.3652 435.174 77.8105C436.365 79.2754 437.859 80.4375 439.656 81.2969C441.453 82.1562 443.553 82.5859 445.955 82.5859C447.635 82.5859 449.246 82.3027 450.789 81.7363C452.332 81.1504 453.699 80.3691 454.891 79.3926C456.082 78.4355 457.029 77.3223 457.732 76.0527C458.455 74.7637 458.826 73.416 458.846 72.0098H453.719C453.699 72.8887 453.465 73.709 453.016 74.4707C452.586 75.2129 452.01 75.8574 451.287 76.4043C450.564 76.9707 449.734 77.4102 448.797 77.7227C447.879 78.0352 446.932 78.1914 445.955 78.1914ZM481.316 42.625H475.867V50.3008H467.547V54.4902H475.867V71.7168C475.867 73.6699 476.121 75.3398 476.629 76.7266C477.156 78.0938 477.869 79.207 478.768 80.0664C479.666 80.9453 480.721 81.5898 481.932 82C483.162 82.3906 484.48 82.5859 485.887 82.5859C486.727 82.5859 487.566 82.5469 488.406 82.4688C489.266 82.3906 490.076 82.2734 490.838 82.1172C491.6 81.9805 492.303 81.8145 492.947 81.6191C493.592 81.4043 494.139 81.1602 494.588 80.8867L493.826 77.0488C493.494 77.127 493.064 77.2246 492.537 77.3418C492.029 77.4395 491.482 77.5371 490.896 77.6348C490.291 77.7324 489.676 77.8203 489.051 77.8984C488.426 77.957 487.82 77.9863 487.234 77.9863C486.434 77.9863 485.672 77.8887 484.949 77.6934C484.246 77.498 483.621 77.1562 483.074 76.668C482.527 76.1992 482.098 75.5645 481.785 74.7637C481.473 73.9629 481.316 72.9473 481.316 71.7168V54.4902H493.387V50.3008H481.316V42.625ZM525.584 73.5918C525.584 74.0996 525.486 74.5781 525.291 75.0273C525.096 75.4766 524.812 75.8867 524.441 76.2578C523.836 76.8633 522.996 77.3418 521.922 77.6934C520.848 78.0254 519.588 78.1914 518.143 78.1914C517.225 78.1914 516.297 78.0938 515.359 77.8984C514.422 77.7031 513.572 77.3711 512.811 76.9023C512.029 76.4336 511.375 75.8184 510.848 75.0566C510.34 74.2949 510.047 73.3574 509.969 72.2441H504.549C504.549 73.5918 504.852 74.8906 505.457 76.1406C506.082 77.3906 506.98 78.4844 508.152 79.4219C509.305 80.3789 510.721 81.1504 512.4 81.7363C514.08 82.3027 515.994 82.5859 518.143 82.5859C520.018 82.5859 521.746 82.3613 523.328 81.9121C524.91 81.4629 526.268 80.8281 527.4 80.0078C528.533 79.1875 529.412 78.2012 530.037 77.0488C530.682 75.8965 531.004 74.6172 531.004 73.2109C531.004 71.9023 530.721 70.75 530.154 69.7539C529.607 68.7578 528.807 67.8789 527.752 67.1172C526.697 66.375 525.398 65.7402 523.855 65.2129C522.312 64.666 520.564 64.1875 518.611 63.7773C517.127 63.4844 515.896 63.1816 514.92 62.8691C513.963 62.5566 513.201 62.2051 512.635 61.8145C512.049 61.4238 511.639 60.9844 511.404 60.4961C511.17 60.0078 511.053 59.4512 511.053 58.8262C511.053 58.2207 511.199 57.6348 511.492 57.0684C511.785 56.502 512.225 56.0039 512.811 55.5742C513.377 55.1445 514.09 54.8027 514.949 54.5488C515.828 54.2949 516.844 54.168 517.996 54.168C519.109 54.168 520.105 54.3242 520.984 54.6367C521.883 54.9492 522.645 55.3594 523.27 55.8672C523.895 56.375 524.383 56.9609 524.734 57.625C525.086 58.2695 525.262 58.9336 525.262 59.6172H530.682C530.682 58.2305 530.379 56.9414 529.773 55.75C529.188 54.5391 528.348 53.4844 527.254 52.5859C526.16 51.6875 524.832 50.9844 523.27 50.4766C521.707 49.9688 519.949 49.7148 517.996 49.7148C516.18 49.7148 514.51 49.959 512.986 50.4473C511.482 50.9355 510.184 51.5996 509.09 52.4395C507.996 53.2793 507.146 54.2656 506.541 55.3984C505.936 56.5117 505.633 57.7129 505.633 59.002C505.633 60.3105 505.926 61.4629 506.512 62.459C507.098 63.4355 507.928 64.2852 509.002 65.0078C510.057 65.75 511.326 66.3848 512.811 66.9121C514.314 67.4395 515.975 67.8887 517.791 68.2598C519.275 68.5527 520.516 68.8848 521.512 69.2559C522.508 69.6074 523.309 69.998 523.914 70.4277C524.52 70.8574 524.949 71.3359 525.203 71.8633C525.457 72.3711 525.584 72.9473 525.584 73.5918Z" fill="#3F3D56"/>
<g id="arrow">
<line id="Line 1" x1="42.1855" y1="34.0824" x2="70.4152" y2="63.967" stroke="#3F3D56" stroke-width="10"/>
<line id="Line 2" y1="-5" x2="41.1096" y2="-5" transform="matrix(0.719804 -0.694177 -0.694177 -0.719804 37.8037 82.0356)" stroke="#3F3D56" stroke-width="10"/>
</g>
<rect id="blink" x="82" y="74" width="42" height="16" fill="#FDD835"/>
</g>
</g>
<g id="enter-btn">
<g id="Rectangle 4" filter="url(#filter1_d)">
<rect x="579" y="2" width="116" height="116" rx="10" fill="#7A72FF"/>
</g>
<g id="enter">
<g id="enter-icon">
<g id="enter_2">
<g id="arrow_2">
<line id="Line 2_2" x1="631.414" y1="94.9952" x2="602.638" y2="66.3119" stroke="white" stroke-width="15"/>
<line id="Line 3" y1="-7.5" x2="40.6302" y2="-7.5" transform="matrix(-0.708251 0.705961 0.705961 0.708251 636.711 46)" stroke="white" stroke-width="15"/>
</g>
<line id="Line 3_2" x1="669.434" y1="25" x2="669.434" y2="76" stroke="white" stroke-width="15"/>
<line id="Line 4" x1="612.934" y1="68.5" x2="669.934" y2="68.5" stroke="white" stroke-width="15"/>
</g>
<path id="Polygon 1" d="M592.897 67.9999L601.935 59.4999L601.935 76L592.897 67.9999Z" fill="white"/>
</g>
</g>
</g>
</g>
<defs>
<filter id="filter0_d" x="0" y="0" width="566" height="128" filterUnits="userSpaceOnUse" color-interpolation-filters="sRGB">
<feFlood flood-opacity="0" result="BackgroundImageFix"/>
<feColorMatrix in="SourceAlpha" type="matrix" values="0 0 0 0 0 0 0 0 0 0 0 0 0 0 0 0 0 0 127 0"/>
<feOffset dy="4"/>
<feGaussianBlur stdDeviation="3"/>
<feColorMatrix type="matrix" values="0 0 0 0 0.477805 0 0 0 0 0.445833 0 0 0 0 1 0 0 0 0.49 0"/>
<feBlend mode="normal" in2="BackgroundImageFix" result="effect1_dropShadow"/>
<feBlend mode="normal" in="SourceGraphic" in2="effect1_dropShadow" result="shape"/>
</filter>
<filter id="filter1_d" x="577" y="0" width="128" height="128" filterUnits="userSpaceOnUse" color-interpolation-filters="sRGB">
<feFlood flood-opacity="0" result="BackgroundImageFix"/>
<feColorMatrix in="SourceAlpha" type="matrix" values="0 0 0 0 0 0 0 0 0 0 0 0 0 0 0 0 0 0 127 0"/>
<feOffset dx="4" dy="4"/>
<feGaussianBlur stdDeviation="3"/>
<feColorMatrix type="matrix" values="0 0 0 0 0.477805 0 0 0 0 0.445833 0 0 0 0 1 0 0 0 0.49 0"/>
<feBlend mode="normal" in2="BackgroundImageFix" result="effect1_dropShadow"/>
<feBlend mode="normal" in="SourceGraphic" in2="effect1_dropShadow" result="shape"/>
</filter>
</defs>
</svg>
