<svg width="673" height="211" viewBox="0 0 673 211" fill="none" xmlns="http://www.w3.org/2000/svg">
<g id="tagline">
<rect id="one" width="673" height="211" fill="white"/>
<path id="tagline_2" d="M36.74 46H38.66C45.82 46 51.34 47.96 55.22 51.88C59.14 55.76 61.1 61.3 61.1 68.5C61.1 72.62 60.1 76.4 58.1 79.84C56.1 83.28 53.38 86 49.94 88C46.54 90 42.78 91 38.66 91H36.74V46ZM39.14 89.14C42.82 89.14 46.18 88.24 49.22 86.44C52.26 84.6 54.66 82.1 56.42 78.94C58.22 75.78 59.12 72.3 59.12 68.5C59.12 61.86 57.38 56.76 53.9 53.2C50.46 49.6 45.54 47.8 39.14 47.8H38.66V89.14H39.14ZM69.2595 46H85.3995V47.74H71.2395V72.22H83.0595V73.96H71.2395V89.26H85.3995V91H69.2595V46ZM128.121 46L107.541 92.02L86.9609 46H89.1209L107.721 87.46L126.081 46H128.121ZM132.834 46H148.974V47.74H134.814V72.22H146.634V73.96H134.814V89.26H148.974V91H132.834V46ZM155.275 46H157.255V89.26H171.175V91H155.275V46ZM195.681 92.2C191.481 92.2 187.581 91.1 183.981 88.9C180.381 86.7 177.521 83.78 175.401 80.14C173.321 76.46 172.281 72.52 172.281 68.32C172.281 64.16 173.341 60.28 175.461 56.68C177.581 53.04 180.441 50.16 184.041 48.04C187.641 45.88 191.541 44.8 195.741 44.8C199.981 44.8 203.881 45.86 207.441 47.98C211.001 50.1 213.821 52.98 215.901 56.62C218.021 60.22 219.081 64.12 219.081 68.32C219.081 72.64 218.021 76.64 215.901 80.32C213.821 83.96 210.981 86.86 207.381 89.02C203.821 91.14 199.921 92.2 195.681 92.2ZM195.681 90.46C199.521 90.46 203.081 89.48 206.361 87.52C209.641 85.52 212.241 82.84 214.161 79.48C216.121 76.08 217.101 72.4 217.101 68.44C217.101 64.52 216.141 60.88 214.221 57.52C212.301 54.16 209.701 51.5 206.421 49.54C203.141 47.54 199.581 46.54 195.741 46.54C191.861 46.54 188.281 47.54 185.001 49.54C181.721 51.5 179.101 54.16 177.141 57.52C175.221 60.88 174.261 64.52 174.261 68.44C174.261 72.4 175.221 76.08 177.141 79.48C179.101 82.84 181.721 85.52 185.001 87.52C188.281 89.48 191.841 90.46 195.681 90.46ZM227.168 46H229.148C233.868 46 237.548 47.26 240.188 49.78C242.828 52.26 244.148 55.6 244.148 59.8C244.148 62.72 243.508 65.32 242.228 67.6C240.948 69.84 239.208 71.58 237.008 72.82C234.808 74.02 232.348 74.62 229.628 74.62H229.148V91H227.168V46ZM229.748 72.88C233.388 72.88 236.368 71.76 238.688 69.52C241.008 67.24 242.168 64.04 242.168 59.92C242.168 56 241.068 53 238.868 50.92C236.708 48.8 233.628 47.74 229.628 47.74H229.148V72.88H229.748ZM297.157 46V91H295.177V48.88L273.937 91.84L252.817 48.34V91H250.837V46H253.657L273.937 87.76L294.397 46H297.157ZM306.623 46H322.763V47.74H308.603V72.22H320.423V73.96H308.603V89.26H322.763V91H306.623V46ZM330.804 50.5V91H329.064V45.34L362.184 86.44V46H363.924V91.66L330.804 50.5ZM380.32 47.74H369.94V46H392.56V47.74H382.3V91H380.32V47.74ZM413.12 57.82C412.56 57.82 412.06 57.62 411.62 57.22C411.22 56.82 411.02 56.32 411.02 55.72C411.02 55.16 411.22 54.68 411.62 54.28C412.06 53.88 412.56 53.68 413.12 53.68C413.68 53.68 414.16 53.88 414.56 54.28C415 54.68 415.22 55.16 415.22 55.72C415.22 56.32 415 56.82 414.56 57.22C414.16 57.62 413.68 57.82 413.12 57.82ZM412.16 64H414.08V91H412.16V64ZM429.566 91.66C427.646 91.66 425.946 91.34 424.466 90.7C422.986 90.02 421.926 89.16 421.286 88.12V84.94C422.046 86.66 423.086 87.94 424.406 88.78C425.726 89.58 427.406 89.98 429.446 89.98C431.406 89.98 432.986 89.38 434.186 88.18C435.386 86.94 435.986 85.36 435.986 83.44C435.986 81.8 435.646 80.54 434.966 79.66C434.286 78.74 433.186 77.82 431.666 76.9L429.386 75.58C427.746 74.58 426.506 73.8 425.666 73.24C424.866 72.64 424.226 71.98 423.746 71.26C423.266 70.5 423.026 69.62 423.026 68.62C423.026 67.02 423.586 65.74 424.706 64.78C425.826 63.82 427.286 63.34 429.086 63.34C431.286 63.34 433.126 63.84 434.606 64.84V67.48C433.366 65.84 431.586 65.02 429.266 65.02C427.986 65.02 426.946 65.34 426.146 65.98C425.346 66.62 424.946 67.44 424.946 68.44C424.946 69.32 425.186 70.1 425.666 70.78C426.146 71.42 426.806 72.02 427.646 72.58C428.526 73.14 429.966 73.98 431.966 75.1C434.006 76.26 435.506 77.46 436.466 78.7C437.426 79.9 437.906 81.48 437.906 83.44C437.906 85.92 437.086 87.92 435.446 89.44C433.846 90.92 431.886 91.66 429.566 91.66ZM469.789 91.66C467.229 91.66 464.849 91.02 462.649 89.74C460.449 88.46 458.709 86.74 457.429 84.58C456.149 82.38 455.509 80.02 455.509 77.5C455.509 74.98 456.149 72.64 457.429 70.48C458.709 68.28 460.449 66.54 462.649 65.26C464.849 63.98 467.229 63.34 469.789 63.34C472.389 63.34 474.849 64.04 477.169 65.44C479.489 66.8 481.109 68.58 482.029 70.78V64H483.949V91H482.029V84.28C480.949 86.52 479.269 88.32 476.989 89.68C474.749 91 472.349 91.66 469.789 91.66ZM469.909 89.98C472.109 89.98 474.149 89.42 476.029 88.3C477.909 87.14 479.389 85.62 480.469 83.74C481.589 81.82 482.149 79.74 482.149 77.5C482.149 75.3 481.589 73.24 480.469 71.32C479.349 69.4 477.849 67.88 475.969 66.76C474.089 65.6 472.049 65.02 469.849 65.02C467.649 65.02 465.589 65.6 463.669 66.76C461.789 67.92 460.269 69.46 459.109 71.38C457.989 73.3 457.429 75.36 457.429 77.56C457.429 79.76 457.989 81.82 459.109 83.74C460.269 85.62 461.809 87.14 463.729 88.3C465.649 89.42 467.709 89.98 469.909 89.98ZM491.522 64H493.442V70C494.322 68 495.822 66.4 497.942 65.2C500.062 63.96 502.402 63.34 504.962 63.34C508.282 63.34 510.902 64.4 512.822 66.52C514.782 68.6 515.762 71.52 515.762 75.28V91H513.842V75.28C513.842 72.04 513.042 69.52 511.442 67.72C509.882 65.92 507.682 65.02 504.842 65.02C502.762 65.02 500.842 65.5 499.082 66.46C497.362 67.38 495.982 68.66 494.942 70.3C493.942 71.94 493.442 73.8 493.442 75.88V91H491.522V64ZM579.602 91H577.502L568.982 73.84H545.102L536.762 91H534.662L557.102 44.92L579.602 91ZM568.262 72.1L556.982 49.24L545.942 72.1H568.262ZM586.291 46H588.871C593.551 46 597.151 47.24 599.671 49.72C602.231 52.2 603.511 55.74 603.511 60.34C603.511 62.98 602.871 65.4 601.591 67.6C600.351 69.8 598.651 71.54 596.491 72.82C594.331 74.06 591.951 74.68 589.351 74.68H588.931L604.411 91H601.831L588.211 76.72V91H586.291V46ZM589.291 72.94C591.571 72.94 593.651 72.38 595.531 71.26C597.411 70.14 598.891 68.64 599.971 66.76C601.051 64.84 601.591 62.72 601.591 60.4C601.591 56.36 600.491 53.24 598.291 51.04C596.131 48.84 593.031 47.74 588.991 47.74H588.211V72.94H589.291ZM617.976 47.74H607.596V46H630.216V47.74H619.956V91H617.976V47.74ZM632.439 89.56C632.439 89.84 632.379 90.16 632.259 90.52L630.399 94.78H629.979V91.48C629.499 91.4 629.079 91.18 628.719 90.82C628.399 90.42 628.239 89.96 628.239 89.44C628.239 88.88 628.439 88.4 628.839 88C629.279 87.6 629.779 87.4 630.339 87.4C630.899 87.4 631.379 87.6 631.779 88C632.219 88.4 632.439 88.88 632.439 89.44V89.56ZM37.04 116H39.02V161H37.04V116ZM46.1563 124.82C48.5163 123.74 49.6963 121.9 49.6963 119.3V112.4H51.8563V119.3C51.8563 121.18 51.3363 122.8 50.2963 124.16C49.2563 125.48 47.8763 126.4 46.1563 126.92V124.82ZM61.6198 134H63.5398V138.08C65.3798 134.92 68.3398 133.34 72.4198 133.34C74.3798 133.34 76.0798 133.9 77.5198 135.02C78.9598 136.1 79.9598 137.74 80.5198 139.94C81.0398 137.98 82.1798 136.4 83.9398 135.2C85.7398 133.96 87.7598 133.34 89.9998 133.34C92.9198 133.34 95.1798 134.2 96.7798 135.92C98.3798 137.6 99.1798 140 99.1798 143.12V161H97.2598V143.12C97.2598 140.6 96.5998 138.62 95.2798 137.18C93.9998 135.74 92.2998 135.02 90.1798 135.02C88.5798 135.02 87.0998 135.42 85.7398 136.22C84.3798 136.98 83.2998 138.02 82.4998 139.34C81.6998 140.66 81.2998 142.12 81.2998 143.72V161H79.3798V144.2C79.3798 141.32 78.6998 139.08 77.3398 137.48C75.9798 135.84 74.2198 135.02 72.0598 135.02C70.6198 135.02 69.2398 135.38 67.9198 136.1C66.6398 136.82 65.5798 137.8 64.7398 139.04C63.9398 140.24 63.5398 141.56 63.5398 143V161H61.6198V134ZM132.641 161.66C130.081 161.66 127.701 161.02 125.501 159.74C123.301 158.46 121.561 156.74 120.281 154.58C119.001 152.38 118.361 150.02 118.361 147.5C118.361 144.98 119.001 142.64 120.281 140.48C121.561 138.28 123.301 136.54 125.501 135.26C127.701 133.98 130.081 133.34 132.641 133.34C135.241 133.34 137.701 134.04 140.021 135.44C142.341 136.8 143.961 138.58 144.881 140.78V134H146.801V161H144.881V154.28C143.801 156.52 142.121 158.32 139.841 159.68C137.601 161 135.201 161.66 132.641 161.66ZM132.761 159.98C134.961 159.98 137.001 159.42 138.881 158.3C140.761 157.14 142.241 155.62 143.321 153.74C144.441 151.82 145.001 149.74 145.001 147.5C145.001 145.3 144.441 143.24 143.321 141.32C142.201 139.4 140.701 137.88 138.821 136.76C136.941 135.6 134.901 135.02 132.701 135.02C130.501 135.02 128.441 135.6 126.521 136.76C124.641 137.92 123.121 139.46 121.961 141.38C120.841 143.3 120.281 145.36 120.281 147.56C120.281 149.76 120.841 151.82 121.961 153.74C123.121 155.62 124.661 157.14 126.581 158.3C128.501 159.42 130.561 159.98 132.761 159.98ZM154.374 134H156.294V140C157.174 138 158.674 136.4 160.794 135.2C162.914 133.96 165.254 133.34 167.814 133.34C171.134 133.34 173.754 134.4 175.674 136.52C177.634 138.6 178.614 141.52 178.614 145.28V161H176.694V145.28C176.694 142.04 175.894 139.52 174.294 137.72C172.734 135.92 170.534 135.02 167.694 135.02C165.614 135.02 163.694 135.5 161.934 136.46C160.214 137.38 158.834 138.66 157.794 140.3C156.794 141.94 156.294 143.8 156.294 145.88V161H154.374V134ZM212.514 160.04C214.594 160.04 216.574 159.5 218.454 158.42C220.334 157.34 221.894 155.86 223.134 153.98V157.04C221.654 158.68 220.034 159.88 218.274 160.64C216.514 161.36 214.514 161.72 212.274 161.72C209.794 161.72 207.454 161.06 205.254 159.74C203.094 158.42 201.354 156.66 200.034 154.46C198.754 152.26 198.114 149.92 198.114 147.44C198.114 144.76 198.754 142.36 200.034 140.24C201.314 138.08 203.054 136.4 205.254 135.2C207.494 134 209.974 133.4 212.694 133.4C216.854 133.4 220.394 135.04 223.314 138.32L204.474 156.92C205.794 158 207.074 158.8 208.314 159.32C209.554 159.8 210.954 160.04 212.514 160.04ZM200.034 147.26C200.034 150.58 201.134 153.42 203.334 155.78L220.914 138.32C219.594 137.16 218.314 136.34 217.074 135.86C215.834 135.34 214.354 135.08 212.634 135.08C210.194 135.08 208.014 135.62 206.094 136.7C204.214 137.74 202.734 139.18 201.654 141.02C200.574 142.86 200.034 144.94 200.034 147.26ZM229.315 134H231.235V138.08C233.075 134.92 236.035 133.34 240.115 133.34C242.075 133.34 243.775 133.9 245.215 135.02C246.655 136.1 247.655 137.74 248.215 139.94C248.735 137.98 249.875 136.4 251.635 135.2C253.435 133.96 255.455 133.34 257.695 133.34C260.615 133.34 262.875 134.2 264.475 135.92C266.075 137.6 266.875 140 266.875 143.12V161H264.955V143.12C264.955 140.6 264.295 138.62 262.975 137.18C261.695 135.74 259.995 135.02 257.875 135.02C256.275 135.02 254.795 135.42 253.435 136.22C252.075 136.98 250.995 138.02 250.195 139.34C249.395 140.66 248.995 142.12 248.995 143.72V161H247.075V144.2C247.075 141.32 246.395 139.08 245.035 137.48C243.675 135.84 241.915 135.02 239.755 135.02C238.315 135.02 236.935 135.38 235.615 136.1C234.335 136.82 233.275 137.8 232.435 139.04C231.635 140.24 231.235 141.56 231.235 143V161H229.315V134ZM287.572 160.04C289.652 160.04 291.632 159.5 293.512 158.42C295.392 157.34 296.952 155.86 298.192 153.98V157.04C296.712 158.68 295.092 159.88 293.332 160.64C291.572 161.36 289.572 161.72 287.332 161.72C284.852 161.72 282.512 161.06 280.312 159.74C278.152 158.42 276.412 156.66 275.092 154.46C273.812 152.26 273.172 149.92 273.172 147.44C273.172 144.76 273.812 142.36 275.092 140.24C276.372 138.08 278.112 136.4 280.312 135.2C282.552 134 285.032 133.4 287.752 133.4C291.912 133.4 295.452 135.04 298.372 138.32L279.532 156.92C280.852 158 282.132 158.8 283.372 159.32C284.612 159.8 286.012 160.04 287.572 160.04ZM275.092 147.26C275.092 150.58 276.192 153.42 278.392 155.78L295.972 138.32C294.652 137.16 293.372 136.34 292.132 135.86C290.892 135.34 289.412 135.08 287.692 135.08C285.252 135.08 283.072 135.62 281.152 136.7C279.272 137.74 277.792 139.18 276.712 141.02C275.632 142.86 275.092 144.94 275.092 147.26ZM304.374 134H306.294V140.24C307.094 138.28 308.254 136.74 309.774 135.62C311.334 134.5 313.094 133.94 315.054 133.94C316.294 133.94 317.554 134.2 318.834 134.72V136.94C317.674 136.06 316.374 135.62 314.934 135.62C313.494 135.62 312.094 136.06 310.734 136.94C309.414 137.82 308.334 139 307.494 140.48C306.694 141.96 306.294 143.54 306.294 145.22V161H304.374V134ZM336.613 173.48C334.333 173.48 332.113 172.96 329.953 171.92C327.793 170.88 326.113 169.52 324.913 167.84V165.08C325.953 167 327.573 168.6 329.773 169.88C332.013 171.16 334.293 171.8 336.613 171.8C340.453 171.8 343.413 170.66 345.493 168.38C347.573 166.14 348.613 162.84 348.613 158.48V154.46C347.533 156.62 345.833 158.38 343.513 159.74C341.233 161.06 338.833 161.72 336.313 161.72C333.753 161.72 331.373 161.08 329.173 159.8C326.973 158.52 325.233 156.8 323.953 154.64C322.673 152.44 322.033 150.08 322.033 147.56C322.033 145.04 322.673 142.7 323.953 140.54C325.233 138.34 326.973 136.6 329.173 135.32C331.373 134.04 333.753 133.4 336.313 133.4C338.953 133.4 341.393 134.06 343.633 135.38C345.873 136.7 347.533 138.48 348.613 140.72V134H350.533V158.48C350.533 163.4 349.333 167.12 346.933 169.64C344.573 172.2 341.133 173.48 336.613 173.48ZM336.433 160.04C338.633 160.04 340.673 159.48 342.553 158.36C344.433 157.2 345.913 155.68 346.993 153.8C348.113 151.88 348.673 149.8 348.673 147.56C348.673 145.32 348.113 143.26 346.993 141.38C345.913 139.46 344.433 137.94 342.553 136.82C340.673 135.66 338.633 135.08 336.433 135.08C334.193 135.08 332.113 135.66 330.193 136.82C328.313 137.94 326.793 139.46 325.633 141.38C324.513 143.26 323.953 145.32 323.953 147.56C323.953 149.8 324.513 151.88 325.633 153.8C326.793 155.68 328.313 157.2 330.193 158.36C332.113 159.48 334.193 160.04 336.433 160.04ZM360.444 127.82C359.884 127.82 359.384 127.62 358.944 127.22C358.544 126.82 358.344 126.32 358.344 125.72C358.344 125.16 358.544 124.68 358.944 124.28C359.384 123.88 359.884 123.68 360.444 123.68C361.004 123.68 361.484 123.88 361.884 124.28C362.324 124.68 362.544 125.16 362.544 125.72C362.544 126.32 362.324 126.82 361.884 127.22C361.484 127.62 361.004 127.82 360.444 127.82ZM359.484 134H361.404V161H359.484V134ZM370.35 134H372.27V140C373.15 138 374.65 136.4 376.77 135.2C378.89 133.96 381.23 133.34 383.79 133.34C387.11 133.34 389.73 134.4 391.65 136.52C393.61 138.6 394.59 141.52 394.59 145.28V161H392.67V145.28C392.67 142.04 391.87 139.52 390.27 137.72C388.71 135.92 386.51 135.02 383.67 135.02C381.59 135.02 379.67 135.5 377.91 136.46C376.19 137.38 374.81 138.66 373.77 140.3C372.77 141.94 372.27 143.8 372.27 145.88V161H370.35V134ZM415.187 173.48C412.907 173.48 410.687 172.96 408.527 171.92C406.367 170.88 404.687 169.52 403.487 167.84V165.08C404.527 167 406.147 168.6 408.347 169.88C410.587 171.16 412.867 171.8 415.187 171.8C419.027 171.8 421.987 170.66 424.067 168.38C426.147 166.14 427.187 162.84 427.187 158.48V154.46C426.107 156.62 424.407 158.38 422.087 159.74C419.807 161.06 417.407 161.72 414.887 161.72C412.327 161.72 409.947 161.08 407.747 159.8C405.547 158.52 403.807 156.8 402.527 154.64C401.247 152.44 400.607 150.08 400.607 147.56C400.607 145.04 401.247 142.7 402.527 140.54C403.807 138.34 405.547 136.6 407.747 135.32C409.947 134.04 412.327 133.4 414.887 133.4C417.527 133.4 419.967 134.06 422.207 135.38C424.447 136.7 426.107 138.48 427.187 140.72V134H429.107V158.48C429.107 163.4 427.907 167.12 425.507 169.64C423.147 172.2 419.707 173.48 415.187 173.48ZM415.007 160.04C417.207 160.04 419.247 159.48 421.127 158.36C423.007 157.2 424.487 155.68 425.567 153.8C426.687 151.88 427.247 149.8 427.247 147.56C427.247 145.32 426.687 143.26 425.567 141.38C424.487 139.46 423.007 137.94 421.127 136.82C419.247 135.66 417.207 135.08 415.007 135.08C412.767 135.08 410.687 135.66 408.767 136.82C406.887 137.94 405.367 139.46 404.207 141.38C403.087 143.26 402.527 145.32 402.527 147.56C402.527 149.8 403.087 151.88 404.207 153.8C405.367 155.68 406.887 157.2 408.767 158.36C410.687 159.48 412.767 160.04 415.007 160.04ZM492.942 161H490.842L482.322 143.84H458.442L450.102 161H448.002L470.442 114.92L492.942 161ZM481.602 142.1L470.322 119.24L459.282 142.1H481.602ZM499.631 116H502.211C506.891 116 510.491 117.24 513.011 119.72C515.571 122.2 516.851 125.74 516.851 130.34C516.851 132.98 516.211 135.4 514.931 137.6C513.691 139.8 511.991 141.54 509.831 142.82C507.671 144.06 505.291 144.68 502.691 144.68H502.271L517.751 161H515.171L501.551 146.72V161H499.631V116ZM502.631 142.94C504.911 142.94 506.991 142.38 508.871 141.26C510.751 140.14 512.231 138.64 513.311 136.76C514.391 134.84 514.931 132.72 514.931 130.4C514.931 126.36 513.831 123.24 511.631 121.04C509.471 118.84 506.371 117.74 502.331 117.74H501.551V142.94H502.631ZM531.316 117.74H520.936V116H543.556V117.74H533.296V161H531.316V117.74ZM549.853 116H551.833V161H549.853V116ZM571.043 161.84C566.043 161.84 562.163 159.78 559.403 155.66V152.42C560.483 154.82 562.043 156.7 564.083 158.06C566.163 159.42 568.643 160.1 571.523 160.1C573.523 160.1 575.363 159.66 577.043 158.78C578.763 157.9 580.123 156.66 581.123 155.06C582.123 153.46 582.623 151.62 582.623 149.54C582.623 147.66 582.303 146.04 581.663 144.68C581.023 143.32 579.963 142.02 578.483 140.78C577.003 139.5 574.863 138 572.063 136.28L570.143 135.08C568.383 134 566.963 133.04 565.883 132.2C564.803 131.36 563.863 130.38 563.063 129.26C562.023 127.7 561.503 125.9 561.503 123.86C561.503 121.14 562.383 119.02 564.143 117.5C565.903 115.98 568.143 115.22 570.863 115.22C574.543 115.22 577.463 116.58 579.623 119.3V122.36C578.703 120.68 577.443 119.36 575.843 118.4C574.243 117.44 572.483 116.96 570.563 116.96C568.563 116.96 566.883 117.58 565.523 118.82C564.163 120.06 563.483 121.72 563.483 123.8C563.483 125.84 564.103 127.6 565.343 129.08C566.623 130.52 568.763 132.1 571.763 133.82C575.443 135.98 578.303 137.94 580.343 139.7C581.783 141.02 582.823 142.48 583.463 144.08C584.143 145.68 584.483 147.46 584.483 149.42C584.483 151.9 583.903 154.08 582.743 155.96C581.583 157.84 579.983 159.3 577.943 160.34C575.903 161.34 573.603 161.84 571.043 161.84ZM595.066 117.74H584.686V116H607.306V117.74H597.046V161H595.066V117.74ZM607.429 161.54C606.869 161.54 606.369 161.34 605.929 160.94C605.529 160.54 605.329 160.04 605.329 159.44C605.329 158.88 605.529 158.4 605.929 158C606.369 157.6 606.869 157.4 607.429 157.4C607.989 157.4 608.469 157.6 608.869 158C609.309 158.4 609.529 158.88 609.529 159.44C609.529 160.04 609.309 160.54 608.869 160.94C608.469 161.34 607.989 161.54 607.429 161.54Z" fill="#3F3D56"/>
</g>
</svg>
